<svg width="752" height="173" viewBox="0 0 752 173" fill="none" xmlns="http://www.w3.org/2000/svg">
<path d="M184.569 31.3652C186.353 31.3652 187.799 32.8148 187.799 34.6029V50.0205C187.799 51.8086 186.353 53.2582 184.569 53.2582H169.189C167.406 53.2582 165.959 54.7077 165.959 56.4958V115.699C165.959 117.488 164.514 118.937 162.73 118.937H147.35C145.566 118.937 144.12 117.488 144.12 115.699V56.4959C144.12 54.7077 142.674 53.2582 140.89 53.2582H125.51C123.726 53.2582 122.28 54.7077 122.28 56.4959V137.592C122.28 139.381 120.834 140.83 119.05 140.83H103.671C101.887 140.83 100.441 139.381 100.441 137.592V56.4959C100.441 54.7077 98.9947 53.2582 97.2111 53.2582H81.831C80.0471 53.2582 78.6012 54.7077 78.6012 56.4958V115.699C78.6012 117.488 77.1551 118.937 75.3714 118.937H59.9914C58.2076 118.937 56.7616 117.488 56.7616 115.699V56.4959C56.7616 54.7078 55.3155 53.2582 53.5318 53.2582H38.1518C36.368 53.2582 34.922 51.8087 34.922 50.0205V34.603C34.922 32.8149 36.368 31.3653 38.1518 31.3653L184.569 31.3652Z" fill="white"/>
<path d="M225.809 67.5414V57.5014H273.112V67.5414H255.479V115.098H243.442V67.5414H225.809ZM293.08 57.5014V115.098H280.902V57.5014H293.08ZM353.917 77.6657H341.599C341.374 76.072 340.915 74.6565 340.221 73.4191C339.527 72.1629 338.637 71.0943 337.549 70.2131C336.462 69.3319 335.206 68.6569 333.781 68.1882C332.375 67.7195 330.847 67.4851 329.197 67.4851C326.216 67.4851 323.619 68.2257 321.407 69.7068C319.194 71.1692 317.479 73.3066 316.26 76.1189C315.041 78.9125 314.432 82.306 314.432 86.2995C314.432 90.4055 315.041 93.8552 316.26 96.6488C317.497 99.4424 319.222 101.552 321.435 102.976C323.647 104.401 326.206 105.114 329.112 105.114C330.743 105.114 332.253 104.898 333.64 104.467C335.046 104.036 336.293 103.408 337.38 102.583C338.468 101.739 339.368 100.717 340.08 99.5174C340.812 98.3174 341.318 96.9488 341.599 95.4114L353.917 95.4676C353.598 98.1112 352.801 100.661 351.526 103.117C350.27 105.554 348.573 107.739 346.436 109.67C344.318 111.582 341.786 113.101 338.843 114.226C335.918 115.332 332.609 115.885 328.915 115.885C323.778 115.885 319.185 114.723 315.135 112.398C311.104 110.073 307.917 106.708 305.573 102.302C303.248 97.8956 302.086 92.5616 302.086 86.2995C302.086 80.0187 303.267 74.6753 305.629 70.2693C307.992 65.8634 311.198 62.5073 315.248 60.2012C319.297 57.8764 323.853 56.714 328.915 56.714C332.253 56.714 335.346 57.1827 338.196 58.1201C341.065 59.0576 343.605 60.4262 345.817 62.2261C348.03 64.0072 349.83 66.1915 351.217 68.7788C352.623 71.3661 353.523 74.3284 353.917 77.6657ZM378.785 67.5414V57.5014H426.088V67.5414H408.455V115.098H396.418V67.5414H378.785ZM436.768 115.098H423.718L443.602 57.5014H459.294L479.149 115.098H466.1L451.673 70.663H451.223L436.768 115.098ZM435.952 92.4585H466.775V101.964H435.952V92.4585ZM534.193 77.6657H521.875C521.65 76.072 521.191 74.6565 520.497 73.4191C519.803 72.1629 518.913 71.0943 517.825 70.2131C516.738 69.3319 515.482 68.6569 514.057 68.1882C512.651 67.7195 511.123 67.4851 509.473 67.4851C506.492 67.4851 503.895 68.2257 501.683 69.7068C499.47 71.1692 497.755 73.3066 496.536 76.1189C495.318 78.9125 494.708 82.306 494.708 86.2995C494.708 90.4055 495.318 93.8552 496.536 96.6488C497.774 99.4424 499.499 101.552 501.711 102.976C503.923 104.401 506.482 105.114 509.389 105.114C511.02 105.114 512.529 104.898 513.916 104.467C515.323 104.036 516.569 103.408 517.657 102.583C518.744 101.739 519.644 100.717 520.357 99.5174C521.088 98.3174 521.594 96.9488 521.875 95.4114L534.193 95.4676C533.874 98.1112 533.078 100.661 531.803 103.117C530.546 105.554 528.85 107.739 526.712 109.67C524.594 111.582 522.063 113.101 519.119 114.226C516.194 115.332 512.885 115.885 509.192 115.885C504.055 115.885 499.461 114.723 495.411 112.398C491.38 110.073 488.193 106.708 485.849 102.302C483.525 97.8956 482.362 92.5616 482.362 86.2995C482.362 80.0187 483.543 74.6753 485.906 70.2693C488.268 65.8634 491.474 62.5073 495.524 60.2012C499.574 57.8764 504.13 56.714 509.192 56.714C512.529 56.714 515.622 57.1827 518.472 58.1201C521.341 59.0576 523.881 60.4262 526.094 62.2261C528.306 64.0072 530.106 66.1915 531.493 68.7788C532.899 71.3661 533.799 74.3284 534.193 77.6657ZM559.061 67.5414V57.5014H606.364V67.5414H588.731V115.098H576.694V67.5414H559.061ZM664.452 86.2995C664.452 92.5803 663.262 97.9237 660.881 102.33C658.518 106.736 655.294 110.101 651.206 112.426C647.138 114.732 642.563 115.885 637.482 115.885C632.364 115.885 627.77 114.723 623.702 112.398C619.634 110.073 616.418 106.708 614.056 102.302C611.693 97.8956 610.512 92.5616 610.512 86.2995C610.512 80.0187 611.693 74.6753 614.056 70.2693C616.418 65.8634 619.634 62.5073 623.702 60.2012C627.77 57.8764 632.364 56.714 637.482 56.714C642.563 56.714 647.138 57.8764 651.206 60.2012C655.294 62.5073 658.518 65.8634 660.881 70.2693C663.262 74.6753 664.452 80.0187 664.452 86.2995ZM652.106 86.2995C652.106 82.231 651.497 78.8 650.278 76.0064C649.078 73.2129 647.382 71.0943 645.188 69.6506C642.994 68.2069 640.426 67.4851 637.482 67.4851C634.539 67.4851 631.97 68.2069 629.777 69.6506C627.583 71.0943 625.877 73.2129 624.658 76.0064C623.458 78.8 622.858 82.231 622.858 86.2995C622.858 90.368 623.458 93.799 624.658 96.5926C625.877 99.3861 627.583 101.505 629.777 102.948C631.97 104.392 634.539 105.114 637.482 105.114C640.426 105.114 642.994 104.392 645.188 102.948C647.382 101.505 649.078 99.3861 650.278 96.5926C651.497 93.799 652.106 90.368 652.106 86.2995ZM673.473 115.098V57.5014H712.283V67.5414H685.65V81.2654H710.286V91.3054H685.65V105.058H712.395V115.098H673.473Z" fill="white"/>
</svg>
